<svg width="6760" height="1200" viewBox="0 0 6760 1200" fill="none" xmlns="http://www.w3.org/2000/svg">
<g clip-path="url(#clip0_16_650)">
<path d="M905 541L729 675L728 224L905 541Z" fill="url(#paint0_linear_16_650)"/>
<path d="M990 375L728 224L905 541L990 375Z" fill="url(#paint1_linear_16_650)"/>
<path d="M990 375L905 541L990 825L990 375Z" fill="url(#paint2_linear_16_650)"/>
<path d="M905 541L990.001 825.001L729.001 675.001L905 541Z" fill="url(#paint3_linear_16_650)"/>
<path d="M702 894L729 675L339 899L702 894Z" fill="url(#paint4_linear_16_650)"/>
<path d="M702 894L990 825L729 675L702 894Z" fill="url(#paint5_linear_16_650)"/>
<path d="M600 1050L702 894L990 825L600 1050Z" fill="url(#paint6_linear_16_650)"/>
<path d="M600 1050L339 899L702 894L600 1050Z" fill="url(#paint7_linear_16_650)"/>
<path d="M1107.62 306.928V893.071L600 1186.14L92.3848 893.071V306.928L600 13.8564L1107.62 306.928Z" stroke="url(#paint8_linear_16_650)" stroke-width="24"/>
<path d="M1714.05 974.4C1658.05 974.4 1605.9 964.95 1557.6 946.05C1510 927.15 1468.7 900.9 1433.7 867.3C1398.7 833 1371.4 793.1 1351.8 747.6C1332.2 702.1 1322.4 652.4 1322.4 598.5C1322.4 544.6 1332.2 494.9 1351.8 449.4C1371.4 403.9 1398.7 364.35 1433.7 330.75C1468.7 296.45 1510 269.85 1557.6 250.95C1605.2 232.05 1657.35 222.6 1714.05 222.6C1770.05 222.6 1821.5 232.05 1868.4 250.95C1916 269.15 1957.3 295.4 1992.3 329.7C2028 363.3 2055.3 402.85 2074.2 448.35C2093.8 493.85 2103.6 543.9 2103.6 598.5C2103.6 653.1 2093.8 703.15 2074.2 748.65C2055.3 794.15 2028 834.05 1992.3 868.35C1957.3 901.95 1916 928.2 1868.4 947.1C1821.5 965.3 1770.05 974.4 1714.05 974.4ZM1714.05 880.95C1754.65 880.95 1792.1 873.95 1826.4 859.95C1861.4 845.95 1891.5 826.35 1916.7 801.15C1942.6 775.25 1962.55 745.15 1976.55 710.85C1991.25 676.55 1998.6 639.1 1998.6 598.5C1998.6 557.9 1991.25 520.45 1976.55 486.15C1962.55 451.85 1942.6 422.1 1916.7 396.9C1891.5 371 1861.4 351.05 1826.4 337.05C1792.1 323.05 1754.65 316.05 1714.05 316.05C1672.75 316.05 1634.6 323.05 1599.6 337.05C1565.3 351.05 1535.2 371 1509.3 396.9C1483.4 422.1 1463.1 451.85 1448.4 486.15C1434.4 520.45 1427.4 557.9 1427.4 598.5C1427.4 639.1 1434.4 676.55 1448.4 710.85C1463.1 745.15 1483.4 775.25 1509.3 801.15C1535.2 826.35 1565.3 845.95 1599.6 859.95C1634.6 873.95 1672.75 880.95 1714.05 880.95ZM2159.09 966V231H2445.74C2510.14 231 2565.09 241.15 2610.59 261.45C2656.09 281.75 2691.09 311.15 2715.59 349.65C2740.09 388.15 2752.34 434 2752.34 487.2C2752.34 540.4 2740.09 586.25 2715.59 624.75C2691.09 662.55 2656.09 691.95 2610.59 712.95C2565.09 733.25 2510.14 743.4 2445.74 743.4H2216.84L2264.09 694.05V966H2159.09ZM2264.09 704.55L2216.84 652.05H2442.59C2509.79 652.05 2560.54 637.7 2594.84 609C2629.84 580.3 2647.34 539.7 2647.34 487.2C2647.34 434.7 2629.84 394.1 2594.84 365.4C2560.54 336.7 2509.79 322.35 2442.59 322.35H2216.84L2264.09 269.85V704.55ZM3127.9 971.25C3073.3 971.25 3021.5 962.15 2972.5 943.95C2924.2 925.05 2886.75 900.9 2860.15 871.5L2884.3 831.6C2909.5 857.5 2943.8 879.55 2987.2 897.75C3031.3 915.25 3077.85 924 3126.85 924C3175.85 924 3215.75 917.7 3246.55 905.1C3278.05 891.8 3301.15 874.3 3315.85 852.6C3331.25 830.9 3338.95 806.75 3338.95 780.15C3338.95 748.65 3330.55 723.45 3313.75 704.55C3296.95 685.65 3274.9 670.6 3247.6 659.4C3220.3 648.2 3190.55 638.75 3158.35 631.05C3126.15 623.35 3093.6 615.3 3060.7 606.9C3027.8 597.8 2997.7 586.25 2970.4 572.25C2943.1 558.25 2921.05 539.35 2904.25 515.55C2888.15 491.05 2880.1 459.55 2880.1 421.05C2880.1 386.05 2889.2 353.85 2907.4 324.45C2925.6 295.05 2953.95 271.25 2992.45 253.05C3030.95 234.85 3080.3 225.75 3140.5 225.75C3181.1 225.75 3221 231.7 3260.2 243.6C3300.1 255.5 3334.05 271.6 3362.05 291.9L3342.1 334.95C3311.3 313.95 3278.05 298.55 3242.35 288.75C3207.35 278.25 3173.4 273 3140.5 273C3093.6 273 3054.75 279.65 3023.95 292.95C2993.15 306.25 2970.4 324.1 2955.7 346.5C2941 368.2 2933.65 392.7 2933.65 420C2933.65 451.5 2941.7 476.7 2957.8 495.6C2974.6 514.5 2996.65 529.55 3023.95 540.75C3051.25 551.95 3081.35 561.4 3114.25 569.1C3147.15 576.8 3179.7 585.2 3211.9 594.3C3244.1 602.7 3273.85 613.9 3301.15 627.9C3328.45 641.9 3350.5 660.8 3367.3 684.6C3384.1 708.4 3392.5 739.2 3392.5 777C3392.5 811.3 3383.05 843.5 3364.15 873.6C3345.25 903 3316.2 926.8 3277 945C3238.5 962.5 3188.8 971.25 3127.9 971.25ZM3482.39 1173.9C3457.19 1173.9 3433.39 1169.7 3410.99 1161.3C3389.29 1152.9 3370.74 1140.65 3355.34 1124.55L3381.59 1084.65C3395.59 1099.35 3410.64 1110.2 3426.74 1117.2C3443.54 1124.2 3462.44 1127.7 3483.44 1127.7C3508.64 1127.7 3530.69 1120.7 3549.59 1106.7C3569.19 1092.7 3587.39 1067.15 3604.19 1030.05L3641.99 946.05L3649.34 936.6L3881.39 417.9H3934.94L3653.54 1040.55C3638.84 1074.15 3622.74 1100.4 3605.24 1119.3C3588.44 1138.9 3569.89 1152.9 3549.59 1161.3C3529.29 1169.7 3506.89 1173.9 3482.39 1173.9ZM3640.94 979.65L3386.84 417.9H3442.49L3673.49 933.45L3640.94 979.65ZM4129.67 970.2C4084.17 970.2 4041.47 963.55 4001.57 950.25C3962.37 936.95 3931.92 920.15 3910.22 899.85L3934.37 857.85C3955.37 876.05 3983.37 891.8 4018.37 905.1C4053.37 917.7 4091.17 924 4131.77 924C4189.17 924 4230.47 914.55 4255.67 895.65C4280.87 876.75 4293.47 851.9 4293.47 821.1C4293.47 798.7 4286.82 781.2 4273.52 768.6C4260.92 755.3 4243.77 745.15 4222.07 738.15C4200.37 731.15 4176.57 725.55 4150.67 721.35C4124.77 716.45 4098.87 711.2 4072.97 705.6C4047.07 700 4023.27 691.95 4001.57 681.45C3979.87 670.95 3962.37 656.6 3949.07 638.4C3936.47 619.5 3930.17 594.65 3930.17 563.85C3930.17 535.85 3937.87 510.65 3953.27 488.25C3968.67 465.85 3991.77 448 4022.57 434.7C4053.37 420.7 4091.87 413.7 4138.07 413.7C4172.37 413.7 4206.67 418.6 4240.97 428.4C4275.97 438.2 4304.32 451.15 4326.02 467.25L4301.87 509.25C4278.77 491.75 4252.87 479.15 4224.17 471.45C4195.47 463.75 4166.42 459.9 4137.02 459.9C4083.82 459.9 4044.62 469.7 4019.42 489.3C3994.92 508.9 3982.67 533.4 3982.67 562.8C3982.67 585.9 3988.97 604.45 4001.57 618.45C4014.87 631.75 4032.37 642.25 4054.07 649.95C4075.77 656.95 4099.57 662.9 4125.47 667.8C4151.37 672 4177.27 676.9 4203.17 682.5C4229.07 688.1 4252.87 696.15 4274.57 706.65C4296.27 716.45 4313.42 730.45 4326.02 748.65C4339.32 766.15 4345.97 789.95 4345.97 820.05C4345.97 850.15 4337.57 876.4 4320.77 898.8C4304.67 921.2 4280.52 938.7 4248.32 951.3C4216.12 963.9 4176.57 970.2 4129.67 970.2ZM4599.59 970.2C4551.29 970.2 4514.19 956.9 4488.29 930.3C4463.09 903.7 4450.49 867.3 4450.49 821.1V298.2H4502.99V815.85C4502.99 850.85 4511.74 877.8 4529.24 896.7C4546.74 915.6 4571.94 925.05 4604.84 925.05C4639.14 925.05 4667.49 914.9 4689.89 894.6L4711.94 931.35C4697.94 944.65 4680.79 954.45 4660.49 960.75C4640.89 967.05 4620.59 970.2 4599.59 970.2ZM4349.69 463.05V417.9H4677.29V463.05H4349.69ZM4987.97 970.2C4932.67 970.2 4883.67 958.3 4840.97 934.5C4798.97 910.7 4765.72 877.8 4741.22 835.8C4717.42 793.8 4705.52 745.85 4705.52 691.95C4705.52 637.35 4716.72 589.4 4739.12 548.1C4762.22 506.1 4793.72 473.2 4833.62 449.4C4873.52 425.6 4918.32 413.7 4968.02 413.7C5017.72 413.7 5062.17 425.25 5101.37 448.35C5141.27 471.45 5172.42 504 5194.82 546C5217.92 587.3 5229.47 635.25 5229.47 689.85C5229.47 691.95 5229.12 694.4 5228.42 697.2C5228.42 699.3 5228.42 701.75 5228.42 704.55H4744.37V663.6H5200.07L5179.07 683.55C5179.77 640.85 5170.67 602.7 5151.77 569.1C5133.57 534.8 5108.72 508.2 5077.22 489.3C5045.72 469.7 5009.32 459.9 4968.02 459.9C4927.42 459.9 4891.02 469.7 4858.82 489.3C4827.32 508.2 4802.47 534.8 4784.27 569.1C4766.07 602.7 4756.97 641.2 4756.97 684.6V694.05C4756.97 738.85 4766.77 778.75 4786.37 813.75C4806.67 848.05 4834.32 875 4869.32 894.6C4904.32 913.5 4944.22 922.95 4989.02 922.95C5024.02 922.95 5056.57 916.65 5086.67 904.05C5117.47 891.45 5143.37 872.2 5164.37 846.3L5194.82 880.95C5171.02 910.35 5140.92 932.75 5104.52 948.15C5068.82 962.85 5029.97 970.2 4987.97 970.2ZM5969.38 413.7C6013.48 413.7 6051.63 422.45 6083.83 439.95C6116.73 456.75 6142.28 482.65 6160.48 517.65C6178.68 551.95 6187.78 594.65 6187.78 645.75V966H6135.28V649.95C6135.28 588.35 6120.23 541.45 6090.13 509.25C6060.03 477.05 6018.03 460.95 5964.13 460.95C5922.83 460.95 5887.13 469.7 5857.03 487.2C5826.93 504.7 5803.83 529.2 5787.73 560.7C5771.63 592.2 5763.58 630 5763.58 674.1V966H5711.08V649.95C5711.08 588.35 5696.03 541.45 5665.93 509.25C5635.83 477.05 5593.83 460.95 5539.93 460.95C5498.63 460.95 5462.93 469.7 5432.83 487.2C5402.73 504.7 5379.63 529.2 5363.53 560.7C5347.43 592.2 5339.38 630 5339.38 674.1V966H5286.88V417.9H5337.28V569.1L5329.93 552.3C5346.03 509.6 5372.98 476 5410.78 451.5C5448.58 426.3 5494.08 413.7 5547.28 413.7C5601.88 413.7 5647.73 427.7 5684.83 455.7C5722.63 483 5746.43 523.95 5756.23 578.55L5738.38 571.2C5753.08 524.3 5780.73 486.5 5821.33 457.8C5861.93 428.4 5911.28 413.7 5969.38 413.7ZM6469.66 970.2C6424.16 970.2 6381.46 963.55 6341.56 950.25C6302.36 936.95 6271.91 920.15 6250.21 899.85L6274.36 857.85C6295.36 876.05 6323.36 891.8 6358.36 905.1C6393.36 917.7 6431.16 924 6471.76 924C6529.16 924 6570.46 914.55 6595.66 895.65C6620.86 876.75 6633.46 851.9 6633.46 821.1C6633.46 798.7 6626.81 781.2 6613.51 768.6C6600.91 755.3 6583.76 745.15 6562.06 738.15C6540.36 731.15 6516.56 725.55 6490.66 721.35C6464.76 716.45 6438.86 711.2 6412.96 705.6C6387.06 700 6363.26 691.95 6341.56 681.45C6319.86 670.95 6302.36 656.6 6289.06 638.4C6276.46 619.5 6270.16 594.65 6270.16 563.85C6270.16 535.85 6277.86 510.65 6293.26 488.25C6308.66 465.85 6331.76 448 6362.56 434.7C6393.36 420.7 6431.86 413.7 6478.06 413.7C6512.36 413.7 6546.66 418.6 6580.96 428.4C6615.96 438.2 6644.31 451.15 6666.01 467.25L6641.86 509.25C6618.76 491.75 6592.86 479.15 6564.16 471.45C6535.46 463.75 6506.41 459.9 6477.01 459.9C6423.81 459.9 6384.61 469.7 6359.41 489.3C6334.91 508.9 6322.66 533.4 6322.66 562.8C6322.66 585.9 6328.96 604.45 6341.56 618.45C6354.86 631.75 6372.36 642.25 6394.06 649.95C6415.76 656.95 6439.56 662.9 6465.46 667.8C6491.36 672 6517.26 676.9 6543.16 682.5C6569.06 688.1 6592.86 696.15 6614.56 706.65C6636.26 716.45 6653.41 730.45 6666.01 748.65C6679.31 766.15 6685.96 789.95 6685.96 820.05C6685.96 850.15 6677.56 876.4 6660.76 898.8C6644.66 921.2 6620.51 938.7 6588.31 951.3C6556.11 963.9 6516.56 970.2 6469.66 970.2Z" fill="black"/>
</g>
<defs>
<linearGradient id="paint0_linear_16_650" x1="651.491" y1="268.172" x2="628.25" y2="619.088" gradientUnits="userSpaceOnUse">
<stop stop-color="#7020EF"/>
<stop offset="1" stop-color="#5944FC"/>
</linearGradient>
<linearGradient id="paint1_linear_16_650" x1="727.113" y1="224.512" x2="795.244" y2="520.447" gradientUnits="userSpaceOnUse">
<stop stop-color="#8E20FB"/>
<stop offset="1" stop-color="#4F0BBF"/>
</linearGradient>
<linearGradient id="paint2_linear_16_650" x1="1043.99" y1="468.512" x2="1062.8" y2="722.084" gradientUnits="userSpaceOnUse">
<stop stop-color="#4B21C0"/>
<stop offset="1" stop-color="#1B068C"/>
</linearGradient>
<linearGradient id="paint3_linear_16_650" x1="755.74" y1="721.315" x2="994.966" y2="777.582" gradientUnits="userSpaceOnUse">
<stop stop-color="#3132C7"/>
<stop offset="1" stop-color="#3F1CB1"/>
</linearGradient>
<linearGradient id="paint4_linear_16_650" x1="339" y1="804.248" x2="729" y2="769.752" gradientUnits="userSpaceOnUse">
<stop stop-color="#0EA1EE"/>
<stop offset="1" stop-color="#1357CC"/>
</linearGradient>
<linearGradient id="paint5_linear_16_650" x1="702" y1="748.796" x2="990" y2="820.204" gradientUnits="userSpaceOnUse">
<stop stop-color="#2F3DE4"/>
<stop offset="1" stop-color="#352CC4"/>
</linearGradient>
<linearGradient id="paint6_linear_16_650" x1="688.165" y1="1050" x2="901.835" y2="825" gradientUnits="userSpaceOnUse">
<stop stop-color="#1F4CD7"/>
<stop offset="1" stop-color="#2423CC"/>
</linearGradient>
<linearGradient id="paint7_linear_16_650" x1="420.115" y1="894" x2="620.885" y2="1050" gradientUnits="userSpaceOnUse">
<stop stop-color="#12ADF2"/>
<stop offset="1" stop-color="#1F68D3"/>
</linearGradient>
<linearGradient id="paint8_linear_16_650" x1="-6.78087e-07" y1="755.281" x2="1200" y2="444.719" gradientUnits="userSpaceOnUse">
<stop stop-color="#2472FC"/>
<stop offset="1" stop-color="#8711C1"/>
</linearGradient>
<clipPath id="clip0_16_650">
<rect width="6760" height="1200" fill="white"/>
</clipPath>
</defs>
</svg>
